<mxfile host="app.diagrams.net" modified="2021-10-19T05:19:05.228Z" agent="5.0 (Windows NT 10.0; Win64; x64) AppleWebKit/537.36 (KHTML, like Gecko) Chrome/94.0.4606.81 Safari/537.36 Edg/94.0.992.50" etag="lmvBVff9hyMY8CGB6MQy" version="15.5.5" type="github">
  <diagram id="WhzPVn9FJ3b00SqcgLOa" name="Page-1">
    <mxGraphModel dx="593" dy="353" grid="1" gridSize="10" guides="1" tooltips="1" connect="1" arrows="1" fold="1" page="1" pageScale="1" pageWidth="827" pageHeight="1169" math="0" shadow="0">
      <root>
        <mxCell id="0" />
        <mxCell id="1" parent="0" />
        <mxCell id="CrZwiXTJu73J8f9Gu_-L-1" value="&lt;&lt;abstract&gt;&gt;&#xa;Cartao" style="swimlane;fontStyle=1;align=center;verticalAlign=top;childLayout=stackLayout;horizontal=1;startSize=40;horizontalStack=0;resizeParent=1;resizeParentMax=0;resizeLast=0;collapsible=1;marginBottom=0;" vertex="1" parent="1">
          <mxGeometry x="270" y="80" width="320" height="160" as="geometry" />
        </mxCell>
        <mxCell id="CrZwiXTJu73J8f9Gu_-L-2" value="- numero: String&#xa;- codSeguranca: String&#xa;- dataValidade: LocalDate" style="text;strokeColor=none;fillColor=none;align=left;verticalAlign=top;spacingLeft=4;spacingRight=4;overflow=hidden;rotatable=0;points=[[0,0.5],[1,0.5]];portConstraint=eastwest;" vertex="1" parent="CrZwiXTJu73J8f9Gu_-L-1">
          <mxGeometry y="40" width="320" height="54" as="geometry" />
        </mxCell>
        <mxCell id="CrZwiXTJu73J8f9Gu_-L-3" value="" style="line;strokeWidth=1;fillColor=none;align=left;verticalAlign=middle;spacingTop=-1;spacingLeft=3;spacingRight=3;rotatable=0;labelPosition=right;points=[];portConstraint=eastwest;" vertex="1" parent="CrZwiXTJu73J8f9Gu_-L-1">
          <mxGeometry y="94" width="320" height="8" as="geometry" />
        </mxCell>
        <mxCell id="CrZwiXTJu73J8f9Gu_-L-4" value="+ processarPagamento(String codCartao, double Valor)&#xa;# abstract processarCredito()&#xa;# abstract processarDebito()" style="text;strokeColor=none;fillColor=none;align=left;verticalAlign=top;spacingLeft=4;spacingRight=4;overflow=hidden;rotatable=0;points=[[0,0.5],[1,0.5]];portConstraint=eastwest;" vertex="1" parent="CrZwiXTJu73J8f9Gu_-L-1">
          <mxGeometry y="102" width="320" height="58" as="geometry" />
        </mxCell>
        <mxCell id="CrZwiXTJu73J8f9Gu_-L-5" value="ProcessadorCredito" style="swimlane;fontStyle=1;align=center;verticalAlign=top;childLayout=stackLayout;horizontal=1;startSize=30;horizontalStack=0;resizeParent=1;resizeParentMax=0;resizeLast=0;collapsible=1;marginBottom=0;" vertex="1" parent="1">
          <mxGeometry x="210" y="350" width="160" height="104" as="geometry" />
        </mxCell>
        <mxCell id="CrZwiXTJu73J8f9Gu_-L-6" value="- limite: double&#xa;- saldo: double" style="text;strokeColor=none;fillColor=none;align=left;verticalAlign=top;spacingLeft=4;spacingRight=4;overflow=hidden;rotatable=0;points=[[0,0.5],[1,0.5]];portConstraint=eastwest;" vertex="1" parent="CrZwiXTJu73J8f9Gu_-L-5">
          <mxGeometry y="30" width="160" height="40" as="geometry" />
        </mxCell>
        <mxCell id="CrZwiXTJu73J8f9Gu_-L-7" value="" style="line;strokeWidth=1;fillColor=none;align=left;verticalAlign=middle;spacingTop=-1;spacingLeft=3;spacingRight=3;rotatable=0;labelPosition=right;points=[];portConstraint=eastwest;" vertex="1" parent="CrZwiXTJu73J8f9Gu_-L-5">
          <mxGeometry y="70" width="160" height="8" as="geometry" />
        </mxCell>
        <mxCell id="CrZwiXTJu73J8f9Gu_-L-8" value="+ method(type): type" style="text;strokeColor=none;fillColor=none;align=left;verticalAlign=top;spacingLeft=4;spacingRight=4;overflow=hidden;rotatable=0;points=[[0,0.5],[1,0.5]];portConstraint=eastwest;" vertex="1" parent="CrZwiXTJu73J8f9Gu_-L-5">
          <mxGeometry y="78" width="160" height="26" as="geometry" />
        </mxCell>
        <mxCell id="CrZwiXTJu73J8f9Gu_-L-9" value="ProcessadorDebito" style="swimlane;fontStyle=1;align=center;verticalAlign=top;childLayout=stackLayout;horizontal=1;startSize=30;horizontalStack=0;resizeParent=1;resizeParentMax=0;resizeLast=0;collapsible=1;marginBottom=0;" vertex="1" parent="1">
          <mxGeometry x="470" y="350" width="160" height="94" as="geometry" />
        </mxCell>
        <mxCell id="CrZwiXTJu73J8f9Gu_-L-10" value="- saldo: double" style="text;strokeColor=none;fillColor=none;align=left;verticalAlign=top;spacingLeft=4;spacingRight=4;overflow=hidden;rotatable=0;points=[[0,0.5],[1,0.5]];portConstraint=eastwest;" vertex="1" parent="CrZwiXTJu73J8f9Gu_-L-9">
          <mxGeometry y="30" width="160" height="30" as="geometry" />
        </mxCell>
        <mxCell id="CrZwiXTJu73J8f9Gu_-L-11" value="" style="line;strokeWidth=1;fillColor=none;align=left;verticalAlign=middle;spacingTop=-1;spacingLeft=3;spacingRight=3;rotatable=0;labelPosition=right;points=[];portConstraint=eastwest;" vertex="1" parent="CrZwiXTJu73J8f9Gu_-L-9">
          <mxGeometry y="60" width="160" height="8" as="geometry" />
        </mxCell>
        <mxCell id="CrZwiXTJu73J8f9Gu_-L-12" value="+ method(type): type" style="text;strokeColor=none;fillColor=none;align=left;verticalAlign=top;spacingLeft=4;spacingRight=4;overflow=hidden;rotatable=0;points=[[0,0.5],[1,0.5]];portConstraint=eastwest;" vertex="1" parent="CrZwiXTJu73J8f9Gu_-L-9">
          <mxGeometry y="68" width="160" height="26" as="geometry" />
        </mxCell>
      </root>
    </mxGraphModel>
  </diagram>
</mxfile>
